# xmcd
#
# Track frame offsets:
#	150
#	15941
#	28144
#	48397
#	69433
#	87767
#	105881
#	124746
#	141252
#	154363
#	170316
#	185218
#	201860
#	217072
#
# Disc length: 3123 seconds
#
# Revision: 2
# Processed by: cddbd v1.5.2PL0 Copyright (c) Steve Scherf et al.
# Submitted via: EZCDAudioConverter 7.1.0.1
#
DISCID=c10c310e
DTITLE=Clint Black - On Purpose
DYEAR=2015
DGENRE=Country
TTITLE0=Time For That
TTITLE1=Better And Worse
TTITLE2=Summertime Song
TTITLE3=Only One Way To Live
TTITLE4=Doing It Now For Love
TTITLE5=You Still Get To Me ( feat. Lisa Hartman Black )
TTITLE6=Right On Time
TTITLE7=Calling It News
TTITLE8=Making You Smile
TTITLE9=Stay Gone
TTITLE10=Breathing Air 
TTITLE11=Beer ( feat. Big and Rich )
TTITLE12=The Trouble
TTITLE13=The Last Day
EXTD=
EXTT0=
EXTT1=
EXTT2=
EXTT3=
EXTT4=
EXTT5=
EXTT6=
EXTT7=
EXTT8=
EXTT9=
EXTT10=
EXTT11=
EXTT12=
EXTT13=
PLAYORDER=
